<?xml version="1.0" encoding="utf-8"?>
<!-- Generator: Adobe Illustrator 15.0.0, SVG Export Plug-In . SVG Version: 6.00 Build 0)  -->
<!DOCTYPE svg PUBLIC "-//W3C//DTD SVG 1.0//EN" "http://www.w3.org/TR/2001/REC-SVG-20010904/DTD/svg10.dtd">
<svg version="1.0" id="Layer_1" xmlns="http://www.w3.org/2000/svg" xmlns:xlink="http://www.w3.org/1999/xlink" x="0px" y="0px"
	 width="53px" height="22px" viewBox="0 0 53 22" enable-background="new 0 0 53 22" xml:space="preserve">
<g>
	<g>
		<defs>
			<polygon id="SVGID_1_" points="18.146,16.318 17.092,21.274 20.197,21.274 21.246,16.318 			"/>
		</defs>
		<clipPath id="SVGID_2_">
			<use xlink:href="#SVGID_1_"  overflow="visible"/>
		</clipPath>
		
			<linearGradient id="SVGID_3_" gradientUnits="userSpaceOnUse" x1="-416.3511" y1="-558.8452" x2="-416.2076" y2="-558.8452" gradientTransform="matrix(-72 364 -364 -72 -233367.25 111280.5)">
			<stop  offset="0" style="stop-color:#EB008B"/>
			<stop  offset="0.1698" style="stop-color:#EC2B9D"/>
			<stop  offset="0.7476" style="stop-color:#F0B8DA"/>
			<stop  offset="1" style="stop-color:#F1F1F2"/>
		</linearGradient>
		<polygon clip-path="url(#SVGID_2_)" fill="url(#SVGID_3_)" points="22.189,16.505 21.089,22.065 16.148,21.088 17.249,15.527 		
			"/>
	</g>
</g>
<g>
	<g>
		<defs>
			<polygon id="SVGID_4_" points="20.183,6.695 19.18,11.428 22.285,11.428 23.288,6.695 			"/>
		</defs>
		<clipPath id="SVGID_5_">
			<use xlink:href="#SVGID_4_"  overflow="visible"/>
		</clipPath>
		
			<linearGradient id="SVGID_6_" gradientUnits="userSpaceOnUse" x1="-416.3535" y1="-558.8428" x2="-416.2079" y2="-558.8428" gradientTransform="matrix(-72 364 -364 -72 -233366.25 111280.75)">
			<stop  offset="0" style="stop-color:#EB008B"/>
			<stop  offset="0.1698" style="stop-color:#EC2B9D"/>
			<stop  offset="0.7476" style="stop-color:#F0B8DA"/>
			<stop  offset="1" style="stop-color:#F1F1F2"/>
		</linearGradient>
		<polygon clip-path="url(#SVGID_5_)" fill="url(#SVGID_6_)" points="24.189,6.873 23.134,12.209 18.279,11.25 19.334,5.914 		"/>
	</g>
</g>
<g>
	<g>
		<defs>
			<path id="SVGID_7_" d="M21.361,0.737C21,1.038,20.824,1.466,20.824,2.038c0,0.555,0.177,0.978,0.541,1.289
				c0.377,0.326,0.851,0.484,1.446,0.484c0.577,0,1.051-0.159,1.451-0.488c0.381-0.313,0.566-0.733,0.566-1.285
				c0-0.57-0.185-0.994-0.563-1.297c-0.4-0.32-0.876-0.476-1.455-0.476C22.215,0.266,21.741,0.42,21.361,0.737"/>
		</defs>
		<clipPath id="SVGID_8_">
			<use xlink:href="#SVGID_7_"  overflow="visible"/>
		</clipPath>
		
			<linearGradient id="SVGID_9_" gradientUnits="userSpaceOnUse" x1="-416.3564" y1="-558.8403" x2="-416.2074" y2="-558.8403" gradientTransform="matrix(-72.0014 364.0072 -364.0072 -72.0014 -233369.625 111283.3203)">
			<stop  offset="0" style="stop-color:#EB008B"/>
			<stop  offset="0.1698" style="stop-color:#EC2B9D"/>
			<stop  offset="0.7476" style="stop-color:#F0B8DA"/>
			<stop  offset="1" style="stop-color:#F1F1F2"/>
		</linearGradient>
		<polygon clip-path="url(#SVGID_8_)" fill="url(#SVGID_9_)" points="25.503,0.398 24.678,4.573 20.15,3.679 20.975,-0.498 		"/>
	</g>
</g>
<g>
	<g>
		<defs>
			<polygon id="SVGID_10_" points="36.02,6.695 33.525,11.427 36.605,11.427 39.473,6.695 			"/>
		</defs>
		<clipPath id="SVGID_11_">
			<use xlink:href="#SVGID_10_"  overflow="visible"/>
		</clipPath>
		
			<linearGradient id="SVGID_12_" gradientUnits="userSpaceOnUse" x1="-416.353" y1="-558.6055" x2="-416.2082" y2="-558.6055" gradientTransform="matrix(-72 364 -364 -72 -233265.25 111300.75)">
			<stop  offset="0" style="stop-color:#EB008B"/>
			<stop  offset="0.1698" style="stop-color:#EC2B9D"/>
			<stop  offset="0.7476" style="stop-color:#F0B8DA"/>
			<stop  offset="1" style="stop-color:#F1F1F2"/>
		</linearGradient>
		<polygon clip-path="url(#SVGID_11_)" fill="url(#SVGID_12_)" points="40.373,6.873 39.248,12.559 32.625,11.246 33.75,5.563 		"/>
	</g>
</g>
<g>
	<g>
		<defs>
			<path id="SVGID_13_" d="M27.681,16.318l1.005,5.108h1.859l3.096-5.105c-0.225,0.001-0.46,0.001-0.695,0.001
				c-0.67,0-1.326-0.003-1.625-0.003l-0.834,1.152l-0.276-1.153H27.681z"/>
		</defs>
		<clipPath id="SVGID_14_">
			<use xlink:href="#SVGID_13_"  overflow="visible"/>
		</clipPath>
		
			<linearGradient id="SVGID_15_" gradientUnits="userSpaceOnUse" x1="-416.3535" y1="-558.6753" x2="-416.2082" y2="-558.6753" gradientTransform="matrix(-71.9991 363.9957 -363.9957 -71.9991 -233291.7031 111293.7266)">
			<stop  offset="0" style="stop-color:#EB008B"/>
			<stop  offset="0.1698" style="stop-color:#EC2B9D"/>
			<stop  offset="0.7476" style="stop-color:#F0B8DA"/>
			<stop  offset="1" style="stop-color:#F1F1F2"/>
		</linearGradient>
		<polygon clip-path="url(#SVGID_14_)" fill="url(#SVGID_15_)" points="34.613,16.51 33.416,22.563 26.708,21.235 27.905,15.185 		
			"/>
	</g>
</g>
<g>
	<g>
		<defs>
			<polygon id="SVGID_16_" points="25.798,6.695 26.726,11.427 29.887,11.427 29.283,6.695 			"/>
		</defs>
		<clipPath id="SVGID_17_">
			<use xlink:href="#SVGID_16_"  overflow="visible"/>
		</clipPath>
		
			<linearGradient id="SVGID_18_" gradientUnits="userSpaceOnUse" x1="-416.353" y1="-558.7402" x2="-416.2074" y2="-558.7402" gradientTransform="matrix(-72 364 -364 -72 -233322.5 111289.25)">
			<stop  offset="0" style="stop-color:#EB008B"/>
			<stop  offset="0.1698" style="stop-color:#EC2B9D"/>
			<stop  offset="0.7476" style="stop-color:#F0B8DA"/>
			<stop  offset="1" style="stop-color:#F1F1F2"/>
		</linearGradient>
		<polygon clip-path="url(#SVGID_17_)" fill="url(#SVGID_18_)" points="30.787,6.873 29.732,12.204 24.897,11.246 25.952,5.917 		
			"/>
	</g>
</g>
<g>
	<g>
		<defs>
			<path id="SVGID_19_" d="M6.257,18.305c-0.674-0.315-1.152-0.86-1.313-1.496c-0.12-0.479-0.043-0.967,0.207-1.304
				c0.479-0.646,1.24-0.7,2.115-0.7c0.116,0,0.235,0.001,0.359,0.003c0.13,0.001,0.266,0.002,0.405,0.002
				c0.007,0,0.491-0.001,1.261-0.001c0.389,0,1.781,0.001,1.781,0.001l-0.1,0.408c-0.032,0.131-0.06,0.249-0.085,0.359
				c-0.065,0.271-0.12,0.505-0.201,0.78c-0.13,0.445-0.302,0.838-0.513,1.17c-0.22,0.349-0.499,0.626-0.826,0.825
				c-0.337,0.204-0.755,0.307-1.242,0.307C7.436,18.659,6.729,18.524,6.257,18.305 M42.387,12.447
				c0.32-1.036,0.826-1.914,1.504-2.61c0.721-0.741,1.585-1.118,2.567-1.118c0.83,0,1.377,0.196,1.669,0.601
				c0.264,0.367,0.397,0.738,0.397,1.108c0,0.602-0.227,1.086-0.673,1.44c-0.369,0.292-0.828,0.522-1.373,0.684
				c-0.575,0.149-1.807,0.254-3.766,0.322l-0.463,0.017L42.387,12.447z M14.067,0.601l-2.583,12.323l-3.059,0.005
				c-0.048,0-0.106,0-0.171,0c-0.082-0.001-0.176-0.002-0.281-0.002c-2.858,0-4.568,0.782-5.083,2.324
				c-1.358,4.071,2.028,5.742,2.172,5.812l0.019,0.009c0.376,0.206,0.869,0.37,1.465,0.486c0.608,0.118,1.195,0.177,1.743,0.177
				c0.949,0,1.763-0.149,2.421-0.445c0.655-0.293,1.208-0.703,1.644-1.215c0.442-0.518,0.805-1.141,1.076-1.847
				c0.279-0.728,0.511-1.519,0.689-2.355l0.232-1.063h24.433l-0.036,0.362c-0.046,0.461-0.069,0.923-0.069,1.374
				c0,1.631,0.445,2.912,1.323,3.809c0.876,0.895,2.104,1.348,3.65,1.348c1.276,0,2.407-0.176,3.36-0.528
				c0.867-0.318,1.596-0.703,2.168-1.146l-0.588-1.813c-0.35,0.207-0.784,0.407-1.318,0.609c-0.745,0.285-1.596,0.429-2.525,0.429
				c-0.955,0-1.714-0.257-2.252-0.767c-0.544-0.513-0.82-1.286-0.82-2.297c0-0.175,0.011-0.369,0.032-0.572
				c0.02-0.179,0.047-0.383,0.083-0.607l0.044-0.268l0.271-0.009c0.402-0.013,0.783-0.027,1.151-0.043
				c0.852-0.009,1.663-0.065,2.419-0.171c0.359-0.043,0.635-0.088,0.817-0.137l0.021-0.004c1.038-0.207,1.936-0.514,2.664-0.91
				c0.711-0.39,1.272-0.883,1.668-1.466c0.387-0.57,0.582-1.246,0.582-2.01c0-0.506-0.084-0.991-0.252-1.438
				c-0.166-0.44-0.426-0.835-0.774-1.176c-0.351-0.341-0.808-0.614-1.359-0.81c-0.561-0.2-1.247-0.301-2.038-0.301
				c-0.981,0-1.979,0.239-2.965,0.714c-0.994,0.478-1.898,1.164-2.688,2.042c-0.792,0.881-1.443,1.969-1.934,3.235
				c-0.058,0.146-0.113,0.303-0.166,0.463l-0.075,0.228h-24.44l2.633-12.35H14.067z"/>
		</defs>
		<clipPath id="SVGID_20_">
			<use xlink:href="#SVGID_19_"  overflow="visible"/>
		</clipPath>
		
			<linearGradient id="SVGID_21_" gradientUnits="userSpaceOnUse" x1="-416.353" y1="-558.7373" x2="-416.2076" y2="-558.7373" gradientTransform="matrix(-72 364 -364 -72 -233322.25 111289.25)">
			<stop  offset="0" style="stop-color:#EB008B"/>
			<stop  offset="0.1698" style="stop-color:#EC2B9D"/>
			<stop  offset="0.7476" style="stop-color:#F0B8DA"/>
			<stop  offset="1" style="stop-color:#F1F1F2"/>
		</linearGradient>
		<polygon clip-path="url(#SVGID_20_)" fill="url(#SVGID_21_)" points="55.455,1.395 49.553,31.233 -2.491,20.939 3.411,-8.899 		
			"/>
	</g>
</g>
</svg>
