<?xml version="1.0" encoding="utf-8"?>
<!-- Generator: Adobe Illustrator 15.0.0, SVG Export Plug-In . SVG Version: 6.00 Build 0)  -->
<!DOCTYPE svg PUBLIC "-//W3C//DTD SVG 1.0//EN" "http://www.w3.org/TR/2001/REC-SVG-20010904/DTD/svg10.dtd">
<svg version="1.0" id="Layer_1" xmlns="http://www.w3.org/2000/svg" xmlns:xlink="http://www.w3.org/1999/xlink" x="0px" y="0px"
	 width="53px" height="22px" viewBox="0 0 53 22" enable-background="new 0 0 53 22" xml:space="preserve">
<polyline fill="#CB1C68" points="20.994,15.879 19.832,21.373 16.133,21.373 17.302,15.879 "/>
<polyline fill="#CB1C68" points="18.176,11.738 19.294,6.463 22.992,6.463 21.874,11.738 "/>
<path fill="#CB1C68" d="M19.861,2.228c0-0.656,0.214-1.163,0.641-1.521c0.427-0.358,0.969-0.537,1.625-0.537
	c0.636,0,1.178,0.179,1.625,0.537c0.448,0.358,0.671,0.865,0.671,1.521c0,0.637-0.223,1.138-0.671,1.506s-0.99,0.552-1.625,0.552
	c-0.656,0-1.198-0.184-1.625-0.552S19.861,2.865,19.861,2.228"/>
<polygon fill="#CB1C68" points="34.856,6.463 32.077,11.736 35.808,11.736 39.003,6.463 "/>
<path fill="#CB1C68" d="M29.787,16.572l-0.166-0.693H26.5l1.11,5.643h2.268l3.419-5.643c-1.063,0.006-3.009,0-3.009,0L29.787,16.572
	z"/>
<polygon fill="#CB1C68" points="24.658,6.463 25.692,11.736 29.416,11.736 28.744,6.463 "/>
<g>
	<defs>
		<path id="SVGID_1_" d="M6.067,17.854c-1.17-0.551-1.367-1.707-0.96-2.258c0.472-0.639,1.337-0.55,2.558-0.55
			c0,0,1.066-0.003,2.566,0c-0.107,0.441-0.168,0.733-0.275,1.102c-0.12,0.409-0.275,0.764-0.464,1.063
			c-0.19,0.3-0.425,0.534-0.704,0.705c-0.28,0.169-0.629,0.254-1.048,0.254C7.121,18.169,6.472,18.041,6.067,17.854 M42.982,10.084
			c0.647-0.665,1.408-0.997,2.283-0.997c0.696,0,1.151,0.152,1.369,0.454c0.221,0.304,0.33,0.602,0.33,0.896
			c0,0.488-0.179,0.874-0.536,1.157c-0.332,0.261-0.74,0.465-1.224,0.609c-0.559,0.145-1.803,0.242-3.615,0.305
			C41.89,11.542,42.353,10.733,42.982,10.084 M13.31,0.499l-2.527,12.059l-2.731,0.005c-0.915,0-4.829-0.18-5.721,2.492
			c-1.44,4.315,2.294,6.08,2.294,6.08c0.399,0.22,0.909,0.389,1.527,0.509c0.619,0.119,1.208,0.179,1.767,0.179
			c0.978,0,1.812-0.154,2.501-0.464s1.263-0.733,1.722-1.273c0.459-0.538,0.828-1.172,1.108-1.901
			c0.279-0.729,0.51-1.512,0.689-2.351l0.171-0.787h23.291c-0.046,0.446-0.068,0.903-0.068,1.378c0,1.689,0.461,3.006,1.386,3.95
			c0.926,0.944,2.192,1.416,3.803,1.416c1.291,0,2.424-0.179,3.398-0.536s1.771-0.795,2.387-1.313l-0.775-2.386
			c-0.357,0.265-0.885,0.53-1.581,0.795c-0.696,0.266-1.48,0.398-2.356,0.398c-0.854,0-1.515-0.22-1.983-0.661
			c-0.466-0.441-0.699-1.113-0.699-2.015c0-0.16,0.009-0.335,0.029-0.525c0.018-0.171,0.046-0.363,0.079-0.576
			c0.394-0.013,0.769-0.026,1.118-0.042c0.847-0.008,1.648-0.064,2.401-0.17c0.361-0.041,0.646-0.089,0.845-0.141
			c1.054-0.208,1.953-0.517,2.698-0.926c0.745-0.406,1.329-0.919,1.745-1.534c0.417-0.617,0.626-1.333,0.626-2.148
			c0-0.537-0.09-1.044-0.269-1.521c-0.179-0.477-0.457-0.899-0.834-1.267c-0.378-0.368-0.859-0.656-1.447-0.865
			c-0.587-0.209-1.287-0.313-2.102-0.313c-1.015,0-2.028,0.244-3.041,0.731c-1.017,0.487-1.926,1.178-2.73,2.073
			c-0.804,0.894-1.457,1.983-1.954,3.265c-0.058,0.155-0.114,0.312-0.165,0.47H14.627l2.576-12.084H13.31z"/>
	</defs>
	<clipPath id="SVGID_2_">
		<use xlink:href="#SVGID_1_"  overflow="visible"/>
	</clipPath>
	
		<linearGradient id="SVGID_3_" gradientUnits="userSpaceOnUse" x1="-382.043" y1="608.7949" x2="-381.9008" y2="608.7949" gradientTransform="matrix(-5 34.0001 34.0001 5 -22583.377 9955.0596)">
		<stop  offset="0" style="stop-color:#CC3366"/>
		<stop  offset="0.4138" style="stop-color:#DC584A"/>
		<stop  offset="0.9958" style="stop-color:#F6921E"/>
		<stop  offset="1" style="stop-color:#F6921E"/>
	</linearGradient>
	<polygon clip-path="url(#SVGID_2_)" fill="url(#SVGID_3_)" points="53.522,0.95 49.403,28.957 -2.179,21.372 1.94,-6.636 	"/>
</g>
</svg>
