<?xml version="1.0" encoding="utf-8"?>
<!-- Generator: Adobe Illustrator 15.0.0, SVG Export Plug-In . SVG Version: 6.00 Build 0)  -->
<!DOCTYPE svg PUBLIC "-//W3C//DTD SVG 1.1//EN" "http://www.w3.org/Graphics/SVG/1.1/DTD/svg11.dtd">
<svg version="1.1" id="Layer_1" xmlns="http://www.w3.org/2000/svg" xmlns:xlink="http://www.w3.org/1999/xlink" x="0px" y="0px"
	 width="80px" height="65px" viewBox="0 0 80 65" enable-background="new 0 0 80 65" xml:space="preserve">
<path fill="#34495E" d="M4,36.5h62.344L44.889,57.957c-1.563,1.561-1.563,4.094-0.002,5.654c1.563,1.563,4.096,1.563,5.658,0
	l28.283-28.283l0,0c0.186-0.186,0.352-0.391,0.498-0.609c0.066-0.1,0.113-0.209,0.172-0.314c0.066-0.123,0.143-0.242,0.195-0.373
	c0.057-0.135,0.088-0.275,0.129-0.414c0.033-0.111,0.076-0.219,0.099-0.332C79.973,33.025,80,32.763,80,32.5l0,0
	c0-0.003-0.001-0.006-0.001-0.009c-0.001-0.259-0.026-0.519-0.078-0.774c-0.024-0.12-0.069-0.231-0.104-0.349
	c-0.039-0.133-0.068-0.268-0.123-0.397c-0.057-0.139-0.135-0.265-0.207-0.396c-0.055-0.098-0.098-0.198-0.159-0.292
	c-0.146-0.221-0.313-0.427-0.501-0.614L50.544,1.389c-1.562-1.562-4.095-1.562-5.657-0.001c-1.562,1.562-1.562,4.095,0,5.658
	L66.344,28.5H4c-2.209,0-4,1.791-4,4C0,34.709,1.791,36.5,4,36.5z"/>
</svg>
