<?xml version="1.0" ?><!DOCTYPE svg  PUBLIC '-//W3C//DTD SVG 1.1//EN'  'http://www.w3.org/Graphics/SVG/1.1/DTD/svg11.dtd'><svg enable-background="new 0 0 512 512" height="512px" id="Layer_1" version="1.1" viewBox="0 0 512 512" width="512px" xml:space="preserve" xmlns="http://www.w3.org/2000/svg" xmlns:xlink="http://www.w3.org/1999/xlink"><g><g><path d="M512,256c0,23.144-3.066,45.533-8.84,66.833c-27.68,102.674-117.62,179.813-226.847,188.348     C269.62,511.727,262.826,512,256,512C114.62,512,0,397.38,0,256S114.62,0,256,0S512,114.62,512,256z" fill="#72C6E9"/><g><path d="M503.16,322.833c-27.68,102.674-117.62,179.813-226.847,188.348      c-6.86-6.931-55.027-55.637-55.027-55.637c-5.9-2.801-7.3-11.4-4.193-16.964l-5.667-6.28c-7.133-3.687-7.68-14.406-1.607-19.184      l-3.073-3.653c0,0-0.34-0.169-0.546-0.272c-3.48-2.457-5.153-5.153-5.253-9.42c0-0.034,0-0.034,0-0.07      c-0.067-2.457,0.613-4.88,1.947-6.927c-1.06-1.027-12.974-12.87-14.034-14.167c-4.333-3.616-7.92-8.329-10.273-14.199      c-0.307-0.274-33.76-33.791-33.994-34.101c-8.533-7.304-13.96-18.09-13.96-30.174c0-5.666,1.193-11.159,3.547-16.35      c-7.273-7.406-11.367-17.406-11.367-27.75c0-8.363,2.593-16.35,7.406-23.04c0.034-0.066,0.034-0.066,0.067-0.103      c0.447-0.613,0.887-1.193,1.367-1.74c0.413-0.51,0.787-1.023,1.227-1.5c-1.5-4.233-2.247-8.637-2.247-13.073      c0-7.27,1.98-14.167,5.493-20.106c3.48-5.903,8.5-10.887,14.54-14.37c0.034,0,0.1-0.033,0.133-0.067      c0.72-0.41,1.474-0.787,2.22-1.16c2.633-1.333,5.36-2.357,8.126-3.04c4.267-17.167,19.594-29.557,37.34-30.104      c4.133-13.69,16.86-19.867,28.093-19.867c8.773,0,17.58,3.687,23.207,10.753c1.2,0.99,7.1,6.893,7.547,7.336      c4.506-11.876,15.973-18.09,27.372-18.09c8.4,0,17.647,3.447,23.487,10.923c3.141,2.527,7.133,7.407,9.594,9.454      c9.486,1.503,17.986,6.383,24.026,13.483C342.873,162.61,468.927,288.563,503.16,322.833z" opacity="0.14"/><g><g><g><g><path d="M386.326,252.627c0-10.034-3.992-19.127-10.453-25.807c1.674-4.236,2.627-8.833,2.627-13.66          c0-18.093-12.94-33.15-30.066-36.463c-3.4-17.02-18.413-29.84-36.427-29.84c-0.267,0-0.52,0.037-0.787,0.043          c-6.514-28.687-53.014-26.367-53.014,6.983c0,5.92,0,11.837,0,17.753c0,3.08,0,6.163,0,9.243c0,54.48,0,108.957,0,163.437          c0,50.28,75.428,50.28,75.428,0c0-3.746,0-7.483,0-11.229c2.486,0.523,5.06,0.81,7.7,0.81          c20.525,0,37.166-16.64,37.166-37.163c0-6.087-1.493-11.82-4.087-16.894C381.727,273.057,386.326,263.387,386.326,252.627z" fill="#FFE484"/><path d="M295.92,384.561c-19.387,0-40.253-12.598-40.253-40.244V153.883c0-19.316,14.8-29.417,29.407-29.417          c11.247,0,23.98,6.167,28.1,19.873c17.8,0.523,33.167,12.974,37.381,30.217c17.76,4.224,30.479,20.197,30.479,38.604          c0,4.453-0.753,8.843-2.24,13.08c6.507,7.287,10.066,16.59,10.066,26.387c0,10.343-4.119,20.356-11.372,27.753          c2.353,5.177,3.546,10.67,3.546,16.354c0,21.891-17.813,39.696-39.699,39.696c-1.721,0-3.447-0.109-5.167-0.343v8.229          C336.167,371.963,315.3,384.561,295.92,384.561z M285.073,129.53c-11.72,0-24.333,7.623-24.333,24.353v190.433          c0,24.17,18.232,35.177,35.18,35.177s35.187-11.007,35.187-35.177v-14.354l3.054,0.647c2.373,0.5,4.786,0.753,7.174,0.753          c19.093,0,34.626-15.533,34.626-34.63c0-5.504-1.28-10.793-3.807-15.74l-0.873-1.703l1.406-1.307          c7.16-6.646,11.106-15.653,11.106-25.356c0-9.014-3.459-17.547-9.739-24.047l-1.134-1.177l0.601-1.517          c1.619-4.104,2.439-8.387,2.439-12.727c0-16.547-11.773-30.837-28.007-33.98l-1.666-0.32l-0.334-1.667          c-3.227-16.11-17.5-27.803-33.946-27.803l-2.793,0.1l-0.46-2.037C305.747,134.23,294.12,129.53,285.073,129.53z" fill="#F29C1F"/></g><path d="M274.667,189v-5.07c19.1,0,34.626-15.534,34.626-34.627h5.074C314.367,171.19,296.56,189,274.667,189         z" fill="#F29C1F"/><path d="M377.326,232.523c-2.692-3.82-6.06-6.997-10-9.454c-3.793-2.363-7.973-3.953-12.406-4.72         c-4.427-0.763-8.894-0.664-13.267,0.276l-1.08-4.946c5.014-1.09,10.133-1.204,15.22-0.32         c5.074,0.877,9.854,2.697,14.214,5.41c4.52,2.813,8.366,6.453,11.46,10.827L377.326,232.523z" fill="#F29C1F"/><path d="M371.98,280.606c-11-15.597-32.646-19.34-48.254-8.347l-2.92-4.14         c17.894-12.607,42.7-8.323,55.313,9.573L371.98,280.606z" fill="#F29C1F"/><path d="M311,195.333l-4.359-2.574c11.113-18.86,35.5-25.16,54.353-14.053l-2.573,4.363         C341.973,173.39,320.7,178.887,311,195.333z" fill="#F29C1F"/><path d="M331.066,333.354c-0.606-4.438-2.06-8.663-4.3-12.557c-2.246-3.897-5.174-7.273-8.7-10.026         c-3.653-2.854-7.793-4.917-12.307-6.134l1.32-4.894c5.174,1.394,9.92,3.764,14.1,7.037c4.047,3.156,7.407,7.02,9.98,11.486         c2.566,4.467,4.227,9.307,4.927,14.394L331.066,333.354z" fill="#F29C1F"/><path d="M311.834,245.467c-1.014,0-1.975-0.617-2.361-1.62c-1.626-4.177-4.006-7.96-7.086-11.233         c-3.087-3.276-6.714-5.887-10.78-7.76c-4.2-1.93-8.706-2.983-13.38-3.13c-1.4-0.04-2.5-1.21-2.46-2.61         c0.047-1.396,1.247-2.354,2.613-2.45c5.36,0.167,10.521,1.373,15.34,3.586c4.667,2.14,8.827,5.137,12.354,8.89         c3.533,3.753,6.267,8.083,8.12,12.876c0.507,1.3-0.146,2.77-1.446,3.277C312.446,245.41,312.134,245.467,311.834,245.467z" fill="#F29C1F"/><path d="M337.18,289.67c-1.02,0-1.979-0.613-2.366-1.616c-1.613-4.184-4-7.957-7.08-11.23         c-3.087-3.283-6.707-5.89-10.773-7.757c-4.206-1.934-8.706-2.986-13.387-3.137c-1.4-0.043-2.5-1.21-2.453-2.609         c0.04-1.4,1.2-2.7,2.606-2.454c5.366,0.171,10.527,1.377,15.347,3.594c4.66,2.14,8.82,5.134,12.354,8.894         c3.526,3.746,6.26,8.08,8.113,12.87c0.507,1.307-0.146,2.77-1.447,3.276C337.787,289.613,337.487,289.67,337.18,289.67z" fill="#F29C1F"/><path d="M288.293,342.773c-4.246-4.457-7.493-9.607-9.646-15.311c-2.087-5.503-3.08-11.3-2.94-17.227         c0.134-5.916,1.395-11.659,3.733-17.066l4.653,2.01c-2.079,4.811-3.199,9.917-3.319,15.174         c-0.127,5.267,0.753,10.42,2.613,15.32c1.906,5.066,4.793,9.64,8.58,13.604L288.293,342.773z" fill="#F29C1F"/><path d="M274.894,198.46c-0.146,0-0.287-0.01-0.427-0.037c-1.38-0.23-2.313-1.543-2.08-2.917         c0.88-5.204,0.747-10.423-0.387-15.527c-0.307-1.367,0.554-2.72,1.92-3.027c1.36-0.313,2.721,0.554,3.026,1.923         c1.28,5.747,1.421,11.627,0.434,17.474C277.173,197.587,276.101,198.46,274.894,198.46z" fill="#F29C1F"/><path d="M276.387,229.98c-0.133,0-0.28-0.01-0.42-0.04c-1.38-0.233-2.307-1.543-2.073-2.92         c0.873-5.19,0.747-10.414-0.387-15.53c-0.307-1.364,0.553-2.72,1.92-3.023c1.373-0.31,2.714,0.56,3.02,1.923         c1.28,5.756,1.434,11.633,0.44,17.477C278.673,229.1,277.606,229.98,276.387,229.98z" fill="#F29C1F"/><path d="M301.927,274.184c-0.14,0-0.286-0.01-0.427-0.037c-1.38-0.23-2.313-1.54-2.073-2.917         c0.873-5.196,0.746-10.423-0.394-15.529c-0.3-1.367,0.56-2.72,1.927-3.027c1.374-0.313,2.72,0.56,3.027,1.923         c1.272,5.753,1.419,11.633,0.433,17.477C304.206,273.311,303.141,274.184,301.927,274.184z" fill="#F29C1F"/><path d="M302.754,312.12c-0.54,0-1.081-0.173-1.54-0.523c-1.113-0.851-1.327-2.437-0.48-3.55         c3.206-4.193,5.526-8.877,6.907-13.92c0.373-1.35,1.746-2.153,3.113-1.777c1.347,0.37,2.146,1.764,1.772,3.11         c-1.546,5.673-4.159,10.943-7.76,15.664C304.267,311.773,303.514,312.12,302.754,312.12z" fill="#F29C1F"/><path d="M345.026,225.523c-1.2,0-2.267-0.854-2.486-2.07c-0.967-5.187-2.887-10.046-5.714-14.457         c-0.753-1.183-0.406-2.747,0.774-3.5c1.166-0.753,2.739-0.41,3.492,0.77c3.181,4.957,5.341,10.43,6.421,16.253         c0.26,1.38-0.646,2.703-2.021,2.957C345.334,225.503,345.18,225.523,345.026,225.523z" fill="#F29C1F"/><path d="M289.934,301.557c-0.28,0-0.574-0.047-0.854-0.149c-5.533-1.98-10.587-4.991-15.014-8.947         c-1.046-0.93-1.14-2.533-0.199-3.577c0.933-1.05,2.533-1.137,3.572-0.203c3.94,3.521,8.434,6.2,13.348,7.957         c1.319,0.474,2.006,1.924,1.533,3.24C291.946,300.91,290.973,301.557,289.934,301.557z" fill="#F29C1F"/><path d="M285.507,349.724c-0.434,0-0.881-0.117-1.287-0.357c-1.206-0.713-1.6-2.267-0.886-3.473         c3.006-5.066,6.92-9.46,11.639-13.047c1.101-0.844,2.694-0.63,3.548,0.483c0.847,1.11,0.626,2.7-0.48,3.553         c-4.193,3.19-7.673,7.094-10.347,11.601C287.22,349.28,286.373,349.724,285.507,349.724z" fill="#F29C1F"/><path d="M320.106,227.083c-0.106,0-0.22-0.007-0.333-0.027c-1.387-0.18-2.36-1.45-2.181-2.836         c0.58-4.44,0.301-8.894-0.846-13.24c-1.134-4.354-3.067-8.38-5.754-11.973c-2.76-3.707-6.213-6.787-10.253-9.153         c-1.207-0.707-1.614-2.26-0.906-3.467c0.713-1.207,2.259-1.613,3.466-0.903c4.627,2.71,8.587,6.24,11.754,10.49         c3.08,4.12,5.3,8.74,6.593,13.724c1.307,4.98,1.634,10.086,0.974,15.18C322.453,226.153,321.359,227.083,320.106,227.083z" fill="#F29C1F"/></g><g><g><path d="M125.693,252.627c0-10.034,3.993-19.127,10.453-25.807c-1.673-4.236-2.62-8.833-2.62-13.66          c0-18.093,12.933-33.15,30.06-36.463c3.406-17.02,18.413-29.84,36.433-29.84c0.26,0,0.513,0.037,0.773,0.043          c6.52-28.687,53.026-26.367,53.026,6.983c0,5.92,0,11.837,0,17.753c0,3.08,0,6.163,0,9.243c0,54.48,0,108.957,0,163.437          c0,50.28-75.433,50.28-75.433,0c0-3.746,0-7.483,0-11.229c-2.487,0.523-5.06,0.81-7.7,0.81          c-20.526,0-37.16-16.64-37.16-37.163c0-6.087,1.493-11.82,4.093-16.894C130.3,273.057,125.693,263.387,125.693,252.627z" fill="#FFE484"/><path d="M175.854,344.316v-8.229c-1.72,0.233-3.454,0.343-5.167,0.343          c-21.887,0-39.693-17.806-39.693-39.696c0-5.684,1.193-11.177,3.547-16.354c-7.253-7.396-11.38-17.41-11.38-27.753          c0-9.797,3.566-19.1,10.073-26.387c-1.487-4.237-2.24-8.627-2.24-13.08c0-18.407,12.713-34.38,30.474-38.604          c4.213-17.243,19.58-29.693,37.387-30.217c4.113-13.707,16.853-19.873,28.086-19.873c14.62,0,29.414,10.1,29.414,29.417          v190.433c0,27.646-20.867,40.244-40.253,40.244S175.854,371.963,175.854,344.316z M203.267,147.453l-0.46,2.037l-2.787-0.1          c-16.454,0-30.733,11.693-33.954,27.803l-0.333,1.667l-1.667,0.32c-16.227,3.143-28.013,17.433-28.013,33.98          c0,4.34,0.827,8.623,2.454,12.727l0.6,1.517l-1.133,1.177c-6.287,6.5-9.747,15.033-9.747,24.047          c0,9.703,3.947,18.71,11.107,25.356l1.413,1.307l-0.88,1.703c-2.527,4.947-3.813,10.236-3.813,15.74          c0,19.097,15.54,34.63,34.633,34.63c2.387,0,4.8-0.253,7.173-0.753l3.06-0.647v14.354c0,24.17,18.24,35.177,35.18,35.177          c16.947,0,35.187-11.007,35.187-35.177V153.883c0-16.73-12.62-24.353-24.347-24.353          C217.9,129.53,206.273,134.23,203.267,147.453z" fill="#F29C1F"/></g><path d="M237.354,189v-5.07c-19.094,0-34.634-15.534-34.634-34.627h-5.06         C197.66,171.19,215.467,189,237.354,189z" fill="#F29C1F"/><path d="M134.7,232.523c2.693-3.82,6.053-6.997,9.986-9.454c3.8-2.363,7.98-3.953,12.407-4.72         c4.434-0.763,8.907-0.664,13.273,0.276l1.08-4.946c-5.014-1.09-10.133-1.204-15.213-0.32         c-5.073,0.877-9.867,2.697-14.22,5.41c-4.52,2.813-8.373,6.453-11.453,10.827L134.7,232.523z" fill="#F29C1F"/><path d="M140.04,280.606c11-15.597,32.646-19.34,48.253-8.347l2.92-4.14         c-17.887-12.607-42.707-8.323-55.313,9.573L140.04,280.606z" fill="#F29C1F"/><path d="M201.02,195.333l4.367-2.574c-11.12-18.86-35.514-25.16-54.36-14.053l2.573,4.363         C170.047,173.39,191.32,178.887,201.02,195.333z" fill="#F29C1F"/><path d="M180.953,333.354c0.613-4.438,2.06-8.663,4.3-12.557c2.247-3.897,5.173-7.273,8.707-10.026         c3.646-2.854,7.787-4.917,12.307-6.134l-1.32-4.894c-5.18,1.394-9.92,3.764-14.107,7.037c-4.04,3.156-7.4,7.02-9.973,11.486         s-4.233,9.307-4.933,14.394L180.953,333.354z" fill="#F29C1F"/><path d="M200.187,245.467c1.02,0,1.98-0.617,2.367-1.62c1.62-4.177,4-7.96,7.08-11.233         c3.086-3.276,6.713-5.887,10.78-7.76c4.207-1.93,8.707-2.983,13.387-3.13c1.394-0.04,2.494-1.21,2.454-2.61         c-0.047-1.396-1.24-2.354-2.613-2.45c-5.36,0.167-10.52,1.373-15.347,3.586c-4.66,2.14-8.813,5.137-12.347,8.89         c-3.534,3.753-6.26,8.083-8.12,12.876c-0.5,1.3,0.146,2.77,1.447,3.277C199.58,245.41,199.887,245.467,200.187,245.467z" fill="#F29C1F"/><path d="M174.847,289.67c1.013,0,1.973-0.613,2.36-1.616c1.613-4.184,3.994-7.957,7.08-11.23         c3.086-3.283,6.713-5.89,10.773-7.757c4.207-1.934,8.713-2.986,13.387-3.137c1.4-0.043,2.5-1.21,2.46-2.609         c-0.047-1.4-1.2-2.7-2.613-2.454c-5.36,0.171-10.527,1.377-15.347,3.594c-4.66,2.14-8.813,5.134-12.354,8.894         c-3.527,3.746-6.26,8.08-8.113,12.87c-0.5,1.307,0.146,2.77,1.453,3.276C174.227,289.613,174.54,289.67,174.847,289.67z" fill="#F29C1F"/><path d="M223.733,342.773c4.247-4.457,7.486-9.607,9.64-15.311c2.094-5.503,3.087-11.3,2.94-17.227         c-0.14-5.916-1.394-11.659-3.74-17.066l-4.646,2.01c2.086,4.811,3.2,9.917,3.327,15.174c0.12,5.267-0.753,10.42-2.62,15.32         c-1.914,5.066-4.793,9.64-8.573,13.604L223.733,342.773z" fill="#F29C1F"/><path d="M237.133,198.46c0.14,0,0.28-0.01,0.427-0.037c1.38-0.23,2.307-1.543,2.073-2.917         c-0.88-5.204-0.747-10.423,0.387-15.527c0.307-1.367-0.553-2.72-1.92-3.027c-1.36-0.313-2.713,0.554-3.02,1.923         c-1.28,5.747-1.434,11.627-0.44,17.474C234.847,197.587,235.92,198.46,237.133,198.46z" fill="#F29C1F"/><path d="M235.626,229.98c0.147,0,0.287-0.01,0.427-0.04c1.38-0.233,2.313-1.543,2.08-2.92         c-0.887-5.19-0.753-10.414,0.387-15.53c0.307-1.364-0.553-2.72-1.927-3.023c-1.374-0.31-2.72,0.56-3.02,1.923         c-1.28,5.756-1.427,11.633-0.433,17.477C233.347,229.1,234.42,229.98,235.626,229.98z" fill="#F29C1F"/><path d="M210.1,274.184c0.14,0,0.28-0.01,0.42-0.037c1.38-0.23,2.313-1.54,2.08-2.917         c-0.88-5.196-0.753-10.423,0.38-15.529c0.307-1.367-0.553-2.72-1.914-3.027c-1.38-0.313-2.72,0.56-3.026,1.923         c-1.28,5.753-1.427,11.633-0.434,17.477C207.813,273.311,208.887,274.184,210.1,274.184z" fill="#F29C1F"/><path d="M209.273,312.12c0.533,0,1.073-0.173,1.533-0.523c1.113-0.851,1.327-2.437,0.48-3.55         c-3.207-4.193-5.527-8.877-6.907-13.92c-0.367-1.35-1.747-2.153-3.113-1.777c-1.347,0.37-2.14,1.764-1.773,3.11         c1.554,5.673,4.167,10.943,7.767,15.664C207.753,311.773,208.507,312.12,209.273,312.12z" fill="#F29C1F"/><path d="M167,225.523c1.193,0,2.26-0.854,2.487-2.07c0.966-5.187,2.886-10.046,5.707-14.457         c0.753-1.183,0.407-2.747-0.767-3.5s-2.747-0.41-3.5,0.77c-3.173,4.957-5.34,10.43-6.427,16.253         c-0.253,1.38,0.653,2.703,2.033,2.957C166.687,225.503,166.847,225.523,167,225.523z" fill="#F29C1F"/><path d="M222.087,301.557c0.286,0,0.573-0.047,0.853-0.149c5.54-1.98,10.587-4.991,15.02-8.947         c1.04-0.93,1.133-2.533,0.2-3.577c-0.934-1.05-2.54-1.137-3.58-0.203c-3.94,3.521-8.427,6.2-13.347,7.957         c-1.313,0.474-2,1.924-1.527,3.24C220.073,300.91,221.053,301.557,222.087,301.557z" fill="#F29C1F"/><path d="M226.507,349.724c0.446,0,0.887-0.117,1.293-0.357c1.207-0.713,1.6-2.267,0.887-3.473         c-3.006-5.066-6.92-9.46-11.633-13.047c-1.106-0.844-2.7-0.63-3.546,0.483c-0.854,1.11-0.634,2.7,0.48,3.553         c4.187,3.19,7.667,7.094,10.347,11.601C224.807,349.28,225.646,349.724,226.507,349.724z" fill="#F29C1F"/><path d="M191.913,227.083c0.114,0,0.22-0.007,0.333-0.027c1.387-0.18,2.367-1.45,2.187-2.836         c-0.587-4.44-0.3-8.894,0.84-13.24c1.14-4.354,3.073-8.38,5.753-11.973c2.767-3.707,6.22-6.787,10.253-9.153         c1.207-0.707,1.614-2.26,0.9-3.467c-0.7-1.207-2.26-1.613-3.46-0.903c-4.626,2.71-8.58,6.24-11.753,10.49         c-3.073,4.12-5.293,8.74-6.594,13.724c-1.307,4.98-1.633,10.086-0.966,15.18         C189.573,226.153,190.667,227.083,191.913,227.083z" fill="#F29C1F"/></g><polygon fill="#F29C1F" points="260.313,362.283 260.313,348.92 252.38,348.92 252.38,362.283 247.483,362.283         247.483,387.977 264.517,387.977 264.517,362.283       "/></g><g><g><path d="M286.859,456.457h-3.626c-0.974,0-1.907,0.073-2.854,0.283c-3.407,0.606-6.633,2.384-9.193,5.054         c-3.353,3.522-8.733,5.796-14.84,5.796c-6.073,0-11.48-2.273-14.833-5.796c-2.6-2.67-5.787-4.447-9.2-5.054         c-0.907-0.21-1.88-0.283-2.813-0.283h-3.633c-13.394,0-13.394-22.841,0-22.841h60.993         C300.227,433.616,300.227,456.457,286.859,456.457z" fill="#EBF5FF"/><path d="M280.38,456.74c-3.407,0.606-6.633,2.384-9.193,5.054c-3.353,3.522-8.733,5.796-14.84,5.796         c-6.073,0-11.48-2.273-14.833-5.796c-2.6-2.67-5.787-4.447-9.2-5.054H280.38z" fill="#354D5C"/><path d="M286.859,433.616h-23.366c13.366,0,13.366,22.841,0,22.841h-3.626c-0.974,0-1.914,0.073-2.854,0.283         c-3.407,0.606-6.634,2.384-9.2,5.054c-0.9,0.952-1.967,1.803-3.147,2.553c3.187,2.023,7.253,3.243,11.68,3.243         c6.106,0,11.487-2.273,14.84-5.796c2.561-2.67,5.786-4.447,9.193-5.054c0.946-0.21,1.88-0.283,2.854-0.283h3.626         C300.227,456.457,300.227,433.616,286.859,433.616z" opacity="0.3"/></g><g><path d="M300.026,410.804c-29.113,0-58.233,0-87.346,0c-15.22,0-15.22-22.827,0-22.827         c29.113,0,58.233,0,87.346,0C315.24,387.977,315.24,410.804,300.026,410.804z" fill="#EBF5FF"/><path d="M201.293,399.727c0.153,5.59,3.926,11.077,11.387,11.077c29.113,0,58.233,0,87.346,0         c7.461,0,11.24-5.487,11.387-11.077H201.293z" opacity="0.2"/></g><g><path d="M295.326,433.633c-25.979,0-51.966,0-77.953,0c-15.213,0-15.213-22.829,0-22.829         c25.987,0,51.974,0,77.953,0C310.547,410.804,310.547,433.633,295.326,433.633z" fill="#EBF5FF"/><path d="M205.967,422.217c0,5.707,3.8,11.416,11.406,11.416c25.987,0,51.974,0,77.953,0         c7.607,0,11.421-5.709,11.421-11.416H205.967z" opacity="0.2"/></g></g></g><g><path d="M259.247,91.59l1.854-37.113c-3.207-0.16-6.474-0.243-9.714-0.243l-0.487,0.003v37.16l0.487-0.003       C254.013,91.394,256.66,91.46,259.247,91.59z" fill="#FFFFFF"/><path d="M99.253,246.213c0-2.687,0.066-5.39,0.2-8.033l-37.113-1.887c-0.167,3.27-0.247,6.603-0.247,9.92       l-0.006,0.3l37.153,0.264L99.253,246.213z" fill="#FFFFFF"/><path d="M150.38,131.247l-24.88-27.603c-2.533,2.287-5.04,4.667-7.447,7.086l26.327,26.22       C146.32,135.007,148.34,133.083,150.38,131.247z" fill="#FFFFFF"/><path d="M114.247,179.646l-33.54-15.99c-1.46,3.06-2.867,6.223-4.18,9.393l34.346,14.19       C111.933,184.67,113.073,182.113,114.247,179.646z" fill="#FFFFFF"/><path d="M202.18,100.3l-12.46-35.013c-3.193,1.137-6.406,2.38-9.56,3.693l14.307,34.3       C197.013,102.217,199.606,101.217,202.18,100.3z" fill="#FFFFFF"/><path d="M412.754,246.213c0-2.687-0.074-5.39-0.207-8.033l37.113-1.887c0.166,3.27,0.253,6.603,0.253,9.92v0.3       l-37.153,0.264L412.754,246.213z" fill="#FFFFFF"/><path d="M361.626,131.247l24.874-27.603c2.54,2.287,5.04,4.667,7.446,7.086l-26.326,26.22       C365.68,135.007,363.66,133.083,361.626,131.247z" fill="#FFFFFF"/><path d="M397.754,179.646l33.546-15.99c1.46,3.06,2.86,6.223,4.173,9.393l-34.347,14.19       C400.066,184.67,398.934,182.113,397.754,179.646z" fill="#FFFFFF"/><path d="M309.82,100.3l12.46-35.013c3.192,1.137,6.413,2.38,9.56,3.693l-14.307,34.3       C314.993,102.217,312.4,101.217,309.82,100.3z" fill="#FFFFFF"/></g></g></g></g></svg>