<?xml version="1.0" encoding="utf-8"?>
<!-- Generator: Adobe Illustrator 15.0.0, SVG Export Plug-In . SVG Version: 6.00 Build 0)  -->
<!DOCTYPE svg PUBLIC "-//W3C//DTD SVG 1.1//EN" "http://www.w3.org/Graphics/SVG/1.1/DTD/svg11.dtd">
<svg version="1.1" xmlns="http://www.w3.org/2000/svg" xmlns:xlink="http://www.w3.org/1999/xlink" x="0px" y="0px" width="512px"
	 height="512px" viewBox="0 0 512 512" enable-background="new 0 0 512 512" xml:space="preserve">
<g id="Layer_1">
	<g>
		<g>
			<circle fill="#6DBEC4" cx="256" cy="256" r="256"/>
		</g>
	</g>
	<path opacity="0.26" fill="#8E8E8E" d="M94.833,352.32l110.46,154.86c0,0,101.207,23.319,193.633-38.222
		C512.201,393.535,512,275.167,512,275.167l-88.282-139.462L94.833,352.32z"/>
	<g>
		<g>
			<g>
				<path fill="#71C2E4" d="M423.385,135.385c0-5.415-4.432-9.847-9.848-9.847H98.462c-5.416,0-9.848,4.432-9.848,9.847v177.23
					h334.771V135.385z"/>
			</g>
		</g>
	</g>
	<g>
		<g>
			<g>
				<rect x="216.615" y="352" fill="#EFEEEE" width="78.771" height="24.615"/>
			</g>
		</g>
	</g>
	<g>
		<g>
			<g>
				<rect x="187.077" y="376.615" fill="#FFFFFF" width="137.846" height="9.847"/>
			</g>
		</g>
	</g>
	<g>
		<g>
			<g>
				<path fill="#242C3C" d="M413.521,135.385c0.007,0.005,0.013,0.012,0.018,0.018V302.77H98.462V135.402
					c0.005-0.006,0.011-0.013,0.017-0.018L413.521,135.385L413.521,135.385z M413.537,125.538H98.462
					c-5.416,0-9.848,4.432-9.848,9.847v177.23h334.771v-177.23C423.385,129.97,418.953,125.538,413.537,125.538L413.537,125.538z"/>
			</g>
		</g>
	</g>
	<g>
		<g>
			<g>
				<path fill="#FFFFFF" d="M88.615,312.615v29.539c0,5.414,4.432,9.846,9.848,9.846h315.075c5.416,0,9.848-4.432,9.848-9.846
					v-29.539H88.615z"/>
			</g>
		</g>
	</g>
	<g>
		<g>
			<g>
				<rect x="241.23" y="327.385" fill="#242C3C" width="29.539" height="9.846"/>
			</g>
		</g>
	</g>
	<g>
		<g>
			<g>
				<rect x="216.615" y="352" fill="#D8D8DA" width="78.771" height="4.923"/>
			</g>
		</g>
	</g>
</g>
<g id="Layer_2">
</g>
</svg>
